<?xml version="1.0" standalone="no"?>
<!DOCTYPE svg PUBLIC "-//W3C//DTD SVG 20010904//EN"
        "http://www.w3.org/TR/2001/REC-SVG-20010904/DTD/svg10.dtd">
<svg version="1.0" xmlns="http://www.w3.org/2000/svg"
     width="112.000000pt" height="136.000000pt" viewBox="0 0 112.000000 136.000000"
     preserveAspectRatio="xMidYMid meet">

    <g transform="translate(0.000000,136.000000) scale(0.100000,-0.100000)"
       fill="#000000" stroke="none">
        <path d="M475 1250 c-14 -6 -7 -8 26 -7 26 1 45 5 42 10 -6 9 -42 8 -68 -3z"/>
        <path d="M626 1251 c10 -10 72 -26 63 -17 -4 4 -21 11 -39 16 -19 5 -29 6 -24
1z"/>
        <path d="M568 1243 c7 -3 16 -2 19 1 4 3 -2 6 -13 5 -11 0 -14 -3 -6 -6z"/>
        <path d="M458 1223 c23 -2 61 -2 85 0 23 2 4 4 -43 4 -47 0 -66 -2 -42 -4z"/>
        <path d="M660 1210 c8 -5 20 -10 25 -10 6 0 3 5 -5 10 -8 5 -19 10 -25 10 -5
0 -3 -5 5 -10z"/>
        <path d="M415 1200 c-13 -5 -14 -9 -5 -9 8 0 24 4 35 9 13 5 14 9 5 9 -8 0
-24 -4 -35 -9z"/>
        <path d="M455 1189 c-27 -11 -36 -17 -20 -14 17 4 47 9 68 12 20 3 37 9 37 14
0 14 -30 9 -85 -12z"/>
        <path d="M610 1190 c30 -4 68 -13 83 -19 16 -6 34 -11 40 -10 33 2 -94 37
-133 37 l-45 -1 55 -7z"/>
        <path d="M508 1173 c7 -3 16 -2 19 1 4 3 -2 6 -13 5 -11 0 -14 -3 -6 -6z"/>
        <path d="M558 1173 c6 -2 18 -2 25 0 6 3 1 5 -13 5 -14 0 -19 -2 -12 -5z"/>
        <path d="M628 1163 c7 -3 16 -2 19 1 4 3 -2 6 -13 5 -11 0 -14 -3 -6 -6z"/>
        <path d="M395 1144 c-22 -8 -44 -19 -50 -25 -5 -6 13 -2 40 9 28 11 57 22 65
25 13 5 13 5 0 6 -8 0 -33 -7 -55 -15z"/>
        <path d="M550 1156 c0 -2 7 -7 16 -10 8 -3 12 -2 9 4 -6 10 -25 14 -25 6z"/>
        <path d="M478 1143 c6 -2 18 -2 25 0 6 3 1 5 -13 5 -14 0 -19 -2 -12 -5z"/>
        <path d="M640 1135 c30 -8 60 -14 65 -14 20 2 -71 27 -95 27 -14 0 0 -6 30
-13z"/>
        <path d="M714 1141 c3 -5 16 -11 28 -14 22 -6 22 -5 4 8 -22 17 -40 20 -32 6z"/>
        <path d="M760 1146 c0 -2 7 -7 16 -10 8 -3 12 -2 9 4 -6 10 -25 14 -25 6z"/>
        <path d="M396 1120 c-27 -11 -54 -24 -60 -30 -9 -9 113 36 123 46 9 9 -16 2
-63 -16z"/>
        <path d="M508 1123 c6 -2 18 -2 25 0 6 3 1 5 -13 5 -14 0 -19 -2 -12 -5z"/>
        <path d="M593 1123 c9 -2 23 -2 30 0 6 3 -1 5 -18 5 -16 0 -22 -2 -12 -5z"/>
        <path d="M740 1105 c14 -8 30 -14 35 -14 6 0 -1 6 -15 14 -14 8 -29 14 -35 14
-5 0 1 -6 15 -14z"/>
        <path d="M385 1089 c-22 -10 -29 -16 -16 -13 37 10 88 33 71 33 -8 0 -33 -9
-55 -20z"/>
        <path d="M485 1100 c-25 -11 1 -11 35 0 20 6 21 8 5 8 -11 0 -29 -3 -40 -8z"/>
        <path d="M558 1103 c6 -2 18 -2 25 0 6 3 1 5 -13 5 -14 0 -19 -2 -12 -5z"/>
        <path d="M690 1100 c8 -5 22 -9 30 -9 10 0 8 3 -5 9 -27 12 -43 12 -25 0z"/>
        <path d="M548 1083 c7 -3 16 -2 19 1 4 3 -2 6 -13 5 -11 0 -14 -3 -6 -6z"/>
        <path d="M628 1073 c7 -3 16 -2 19 1 4 3 -2 6 -13 5 -11 0 -14 -3 -6 -6z"/>
        <path d="M363 1060 c-34 -14 -28 -21 7 -9 17 6 30 13 30 15 0 6 -12 4 -37 -6z"/>
        <path d="M439 1053 c-13 -17 -13 -17 6 -3 11 8 22 16 24 17 2 2 0 3 -6 3 -6 0
-17 -8 -24 -17z"/>
        <path d="M608 1053 c6 -2 18 -2 25 0 6 3 1 5 -13 5 -14 0 -19 -2 -12 -5z"/>
        <path d="M333 1024 c-38 -16 -43 -24 -10 -17 21 4 21 3 -3 -11 -32 -19 -14
-20 20 -1 15 9 19 15 10 15 -9 0 -5 6 10 15 32 18 15 18 -27 -1z"/>
        <path d="M400 1030 c-11 -7 -11 -10 -2 -10 7 0 10 -4 7 -10 -4 -6 1 -7 11 -3
11 4 13 8 6 11 -7 2 -10 8 -6 13 7 11 3 11 -16 -1z"/>
        <path d="M558 1033 c7 -3 16 -2 19 1 4 3 -2 6 -13 5 -11 0 -14 -3 -6 -6z"/>
        <path d="M654 1015 c36 -19 45 -19 20 0 -10 8 -26 14 -34 15 -8 0 -2 -7 14
-15z"/>
        <path d="M780 1026 c0 -2 7 -7 16 -10 8 -3 12 -2 9 4 -6 10 -25 14 -25 6z"/>
        <path d="M553 1013 c9 -2 25 -2 35 0 9 3 1 5 -18 5 -19 0 -27 -2 -17 -5z"/>
        <path d="M435 1000 c-3 -6 1 -7 9 -4 18 7 21 14 7 14 -6 0 -13 -4 -16 -10z"/>
        <path d="M465 985 c-25 -12 -26 -14 -5 -9 14 4 29 10 35 15 12 12 5 11 -30 -6z"/>
        <path d="M578 993 c6 -2 18 -2 25 0 6 3 1 5 -13 5 -14 0 -19 -2 -12 -5z"/>
        <path d="M701 996 c2 -2 15 -9 29 -15 24 -11 24 -11 6 3 -16 13 -49 24 -35 12z"/>
        <path d="M757 989 c7 -7 15 -10 18 -7 3 3 -2 9 -12 12 -14 6 -15 5 -6 -5z"/>
        <path d="M318 969 c-21 -11 -38 -22 -38 -24 0 -3 14 2 31 10 17 9 33 14 36 11
3 -2 -9 -12 -26 -21 -17 -8 -31 -18 -31 -21 0 -14 63 33 66 49 1 9 2 17 1 17
-1 -1 -19 -10 -39 -21z"/>
        <path d="M664 978 c-4 -7 -3 -8 5 -4 6 4 36 -6 66 -23 30 -17 55 -29 55 -26 0
5 -102 65 -112 65 -4 0 -10 -5 -14 -12z"/>
        <path d="M538 973 c12 -2 32 -2 45 0 12 2 2 4 -23 4 -25 0 -35 -2 -22 -4z"/>
        <path d="M802 971 c-11 -7 -11 -9 0 -14 9 -3 15 1 15 9 0 8 -1 14 -1 14 -1 0
-7 -4 -14 -9z"/>
        <path d="M488 963 c7 -3 16 -2 19 1 4 3 -2 6 -13 5 -11 0 -14 -3 -6 -6z"/>
        <path d="M538 953 c7 -3 16 -2 19 1 4 3 -2 6 -13 5 -11 0 -14 -3 -6 -6z"/>
        <path d="M710 939 c33 -19 22 -21 -25 -4 -14 4 -13 2 4 -8 17 -10 20 -16 10
-19 -8 -3 0 -5 17 -5 22 0 31 5 30 15 -3 14 -42 41 -61 41 -5 0 6 -9 25 -20z"/>
        <path d="M805 935 c11 -9 29 -21 40 -26 l20 -10 -20 16 c-11 9 -29 21 -40 26
l-20 10 20 -16z"/>
        <path d="M358 931 c11 -7 10 -10 -3 -15 -23 -9 -27 -8 -19 5 4 7 -2 7 -17 -1
-34 -18 -34 -19 3 -15 49 4 73 16 56 26 -7 5 -17 9 -23 9 -5 0 -4 -4 3 -9z"/>
        <path d="M533 933 c9 -2 23 -2 30 0 6 3 -1 5 -18 5 -16 0 -22 -2 -12 -5z"/>
        <path d="M841 937 c2 -1 13 -9 24 -17 19 -14 19 -14 6 3 -7 9 -18 17 -24 17
-6 0 -8 -1 -6 -3z"/>
        <path d="M650 920 c8 -5 20 -10 25 -10 6 0 3 5 -5 10 -8 5 -19 10 -25 10 -5 0
-3 -5 5 -10z"/>
        <path d="M515 910 c-3 -6 1 -7 9 -4 18 7 21 14 7 14 -6 0 -13 -4 -16 -10z"/>
        <path d="M558 913 c7 -3 16 -2 19 1 4 3 -2 6 -13 5 -11 0 -14 -3 -6 -6z"/>
        <path d="M733 875 c-176 -32 -332 -111 -363 -185 -16 -39 5 -73 57 -92 44 -15
215 -15 253 0 20 8 8 10 -57 11 -94 0 -150 20 -159 56 -17 68 129 162 311 200
44 9 81 18 84 21 8 7 -52 3 -126 -11z"/>
        <path d="M848 735 c-32 -71 -51 -125 -44 -125 7 0 19 19 27 43 15 41 17 42 67
45 l51 3 12 -42 c12 -38 32 -59 45 -46 4 4 -90 234 -100 244 -1 1 -27 -54 -58
-122z m74 25 l17 -40 -40 0 c-21 0 -39 2 -39 4 0 12 32 76 38 76 4 0 15 -18
24 -40z"/>
        <path d="M192 733 c-28 -64 -49 -119 -47 -122 9 -8 22 12 35 52 l12 38 51 -3
c49 -3 51 -4 66 -45 10 -28 21 -43 32 -43 14 0 8 21 -34 120 -28 66 -54 120
-57 120 -3 0 -29 -53 -58 -117z m71 32 c9 -20 17 -38 17 -40 0 -3 -18 -5 -39
-5 l-40 0 17 40 c9 22 20 40 23 40 3 0 13 -16 22 -35z"/>
        <path d="M674 816 c-121 -45 -184 -94 -184 -143 0 -33 29 -43 117 -42 77 1 77
2 25 9 -88 13 -105 45 -51 100 32 31 85 62 148 85 20 8 29 14 21 14 -8 0 -43
-10 -76 -23z"/>
        <path d="M880 540 c0 -5 5 -10 11 -10 5 0 7 5 4 10 -3 6 -8 10 -11 10 -2 0 -4
-4 -4 -10z"/>
        <path d="M222 515 c0 -16 2 -22 5 -12 2 9 2 23 0 30 -3 6 -5 -1 -5 -18z"/>
        <path d="M710 524 c0 -8 5 -12 10 -9 6 4 8 11 5 16 -9 14 -15 11 -15 -7z"/>
        <path d="M752 515 c0 -16 2 -22 5 -12 2 9 2 23 0 30 -3 6 -5 -1 -5 -18z"/>
        <path d="M160 511 c0 -6 4 -13 10 -16 6 -3 7 1 4 9 -7 18 -14 21 -14 7z"/>
        <path d="M627 513 c-4 -3 -7 -11 -7 -17 0 -6 5 -5 12 2 6 6 9 14 7 17 -3 3 -9
2 -12 -2z"/>
        <path d="M650 511 c0 -6 4 -13 10 -16 6 -3 7 1 4 9 -7 18 -14 21 -14 7z"/>
        <path d="M906 507 c3 -10 9 -15 12 -12 3 3 0 11 -7 18 -10 9 -11 8 -5 -6z"/>
        <path d="M130 499 c0 -5 5 -7 10 -4 6 3 10 8 10 11 0 2 -4 4 -10 4 -5 0 -10
-5 -10 -11z"/>
        <path d="M232 448 c-10 -10 -8 -16 10 -30 l23 -18 -25 0 c-19 0 -21 -3 -11 -9
18 -11 41 -3 41 15 0 7 -8 18 -17 23 -17 10 -17 10 0 11 10 0 15 5 12 10 -8
13 -18 13 -33 -2z"/>
        <path d="M323 444 c-4 -10 1 -20 13 -27 17 -10 17 -11 -1 -18 -19 -7 -19 -8 2
-8 32 -1 37 15 11 33 -19 14 -20 16 -5 16 10 0 15 5 12 10 -9 15 -25 12 -32
-6z"/>
        <path d="M420 445 c-19 -23 -8 -50 20 -50 19 0 26 6 28 24 5 35 -26 53 -48 26z
m40 -25 c0 -11 -6 -20 -14 -20 -18 0 -29 16 -21 30 11 18 35 11 35 -10z"/>
        <path d="M533 453 c-7 -2 -13 -18 -13 -34 0 -25 3 -29 28 -28 23 2 24 2 5 6
-30 6 -32 43 -2 43 11 0 17 5 14 10 -7 11 -13 11 -32 3z"/>
        <path d="M620 425 c0 -19 5 -35 10 -35 6 0 10 16 10 35 0 19 -4 35 -10 35 -5
0 -10 -16 -10 -35z"/>
        <path d="M780 449 c0 -5 4 -9 9 -9 5 0 12 -12 14 -27 l4 -28 2 28 c0 15 6 27
11 27 6 0 10 4 10 9 0 5 -11 9 -25 9 -14 0 -25 -4 -25 -9z"/>
        <path d="M887 453 c-4 -3 -7 -19 -7 -35 0 -23 4 -28 23 -27 21 0 21 1 2 9 -20
8 -20 8 -1 16 19 7 19 8 0 15 -17 7 -17 8 -1 8 9 1 17 6 17 11 0 11 -23 14
-33 3z"/>
        <path d="M983 453 c-20 -8 -15 -29 10 -41 l22 -11 -25 0 c-19 -1 -22 -3 -11
-10 16 -10 51 3 51 18 0 4 -10 13 -22 19 -19 9 -20 11 -5 11 10 1 15 6 12 11
-7 11 -13 11 -32 3z"/>
        <path d="M140 436 c0 -8 -7 -22 -16 -30 -13 -14 -14 -16 0 -16 8 0 18 5 21 10
5 8 11 7 21 -1 17 -14 19 2 4 32 -12 22 -30 25 -30 5z"/>
        <path d="M700 431 c-14 -28 -14 -49 2 -33 8 8 15 9 25 1 14 -12 16 -6 7 29 -8
27 -20 28 -34 3z"/>
        <path d="M359 356 c18 -9 37 -14 41 -11 5 3 21 0 37 -6 l28 -11 -24 -12 -24
-13 29 -8 29 -8 -30 -14 -30 -14 28 6 c22 4 27 3 21 -7 -4 -7 -4 -10 1 -6 4 4
14 3 22 -4 11 -9 13 -8 11 3 -2 10 5 13 25 12 15 -1 25 2 22 8 -4 5 -16 9 -28
10 -21 0 -21 1 -2 9 11 5 14 9 7 9 -7 1 -20 7 -27 15 -12 12 -12 15 1 20 9 3
12 2 9 -4 -10 -16 25 -24 38 -10 9 10 9 12 -4 7 -10 -3 -16 1 -16 9 0 10 6 13
16 8 9 -3 34 -8 56 -9 28 -3 34 -1 20 4 -19 8 -18 9 5 13 l25 4 -27 5 c-15 4
-25 2 -22 -2 7 -12 -3 -11 -28 2 -15 8 -19 8 -14 0 4 -6 4 -11 1 -11 -4 0 -16
5 -27 11 -15 8 -19 8 -14 0 10 -15 -7 -14 -24 2 -12 10 -12 9 -1 -5 17 -23 3
-23 -21 -1 -12 10 -18 12 -18 4 0 -7 -5 -9 -12 -5 -19 12 -48 12 -41 1 4 -7
-1 -7 -13 -3 -38 16 -58 17 -25 2z m116 -16 c3 -5 2 -10 -4 -10 -5 0 -13 5
-16 10 -3 6 -2 10 4 10 5 0 13 -4 16 -10z m15 -35 c13 -16 3 -20 -24 -9 -9 3
-13 10 -10 15 8 13 20 11 34 -6z m7 -31 c-3 -3 -12 -4 -19 -1 -8 3 -5 6 6 6
11 1 17 -2 13 -5z"/>
        <path d="M300 350 c0 -6 8 -10 18 -10 9 0 24 -5 32 -11 11 -7 4 -8 -25 -4 -31
4 -26 1 24 -16 47 -15 60 -23 50 -30 -17 -10 1 -12 27 -2 15 5 10 10 -22 25
-25 12 -30 17 -14 14 31 -6 60 8 36 17 -9 4 -22 4 -29 1 -7 -2 -32 2 -55 10
-23 8 -42 11 -42 6z"/>
        <path d="M788 343 c7 -3 16 -2 19 1 4 3 -2 6 -13 5 -11 0 -14 -3 -6 -6z"/>
        <path d="M748 333 c7 -3 16 -2 19 1 4 3 -2 6 -13 5 -11 0 -14 -3 -6 -6z"/>
        <path d="M838 333 c7 -3 16 -2 19 1 4 3 -2 6 -13 5 -11 0 -14 -3 -6 -6z"/>
        <path d="M668 323 c7 -3 16 -2 19 1 4 3 -2 6 -13 5 -11 0 -14 -3 -6 -6z"/>
        <path d="M788 323 c6 -2 18 -2 25 0 6 3 1 5 -13 5 -14 0 -19 -2 -12 -5z"/>
        <path d="M560 316 c0 -2 7 -7 16 -10 8 -3 12 -2 9 4 -6 10 -25 14 -25 6z"/>
        <path d="M728 313 c6 -2 18 -2 25 0 6 3 1 5 -13 5 -14 0 -19 -2 -12 -5z"/>
        <path d="M838 313 c7 -3 16 -2 19 1 4 3 -2 6 -13 5 -11 0 -14 -3 -6 -6z"/>
        <path d="M321 291 c-12 -8 -8 -11 14 -17 26 -7 27 -8 10 -16 -14 -5 -9 -6 15
-2 26 4 31 3 20 -5 -13 -9 -12 -11 5 -11 15 0 17 -2 7 -9 -11 -6 -8 -10 10
-14 13 -4 32 -21 42 -39 11 -18 21 -27 24 -20 2 7 13 12 25 12 17 0 19 2 8 9
-11 7 -4 11 25 16 61 10 63 13 11 14 -34 1 -49 6 -54 17 -4 12 -8 13 -14 3 -4
-7 -3 -19 3 -26 7 -9 7 -13 -1 -13 -6 0 -12 6 -12 13 -1 6 -2 18 -3 26 0 8
-23 22 -51 32 -28 10 -41 18 -30 19 l20 1 -20 9 c-27 11 -37 11 -54 1z m36 -7
c-3 -3 -12 -4 -19 -1 -8 3 -5 6 6 6 11 1 17 -2 13 -5z"/>
        <path d="M820 290 c-21 -7 -21 -8 -5 -9 11 0 27 4 35 9 18 11 5 11 -30 0z"/>
        <path d="M598 273 c7 -3 16 -2 19 1 4 3 -2 6 -13 5 -11 0 -14 -3 -6 -6z"/>
        <path d="M800 260 c-11 -8 -7 -9 15 -4 37 8 45 14 19 14 -10 0 -26 -5 -34 -10z"/>
        <path d="M638 253 c6 -2 18 -2 25 0 6 3 1 5 -13 5 -14 0 -19 -2 -12 -5z"/>
        <path d="M558 243 c7 -3 16 -2 19 1 4 3 -2 6 -13 5 -11 0 -14 -3 -6 -6z"/>
        <path d="M708 243 c6 -2 18 -2 25 0 6 3 1 5 -13 5 -14 0 -19 -2 -12 -5z"/>
        <path d="M618 233 c6 -2 18 -2 25 0 6 3 1 5 -13 5 -14 0 -19 -2 -12 -5z"/>
        <path d="M768 203 c7 -3 16 -2 19 1 4 3 -2 6 -13 5 -11 0 -14 -3 -6 -6z"/>
        <path d="M610 183 c0 -10 4 -14 8 -8 4 6 11 13 16 18 5 4 2 7 -7 7 -10 0 -17
-8 -17 -17z"/>
        <path d="M748 188 c6 -6 18 -8 28 -6 14 3 12 5 -9 10 -19 3 -25 2 -19 -4z"/>
        <path d="M525 180 c3 -5 8 -10 11 -10 2 0 4 5 4 10 0 6 -5 10 -11 10 -5 0 -7
-4 -4 -10z"/>
        <path d="M560 170 c0 -11 5 -20 10 -20 6 0 10 9 10 20 0 11 -4 20 -10 20 -5 0
-10 -9 -10 -20z"/>
        <path d="M410 170 c0 -5 5 -10 11 -10 5 0 7 5 4 10 -3 6 -8 10 -11 10 -2 0 -4
-4 -4 -10z"/>
        <path d="M535 150 c-3 -5 -1 -10 4 -10 6 0 11 5 11 10 0 6 -2 10 -4 10 -3 0
-8 -4 -11 -10z"/>
        <path d="M638 113 c7 -3 16 -2 19 1 4 3 -2 6 -13 5 -11 0 -14 -3 -6 -6z"/>
    </g>
</svg>
