<?xml version="1.0" standalone="no"?>
<!DOCTYPE svg PUBLIC "-//W3C//DTD SVG 20010904//EN"
        "http://www.w3.org/TR/2001/REC-SVG-20010904/DTD/svg10.dtd">
<svg version="1.0" xmlns="http://www.w3.org/2000/svg"
     width="532.000000pt" height="53.000000pt" viewBox="0 0 532.000000 53.000000"
     preserveAspectRatio="xMidYMid meet">
    <metadata>
        Created by potrace 1.15, written by Peter Selinger 2001-2017
    </metadata>
    <g transform="translate(0.000000,53.000000) scale(0.100000,-0.100000)"
       fill="#000000" stroke="none">
        <path d="M1868 516 c-20 -7 -54 -27 -76 -45 -112 -88 -123 -290 -21 -392 55
-55 94 -72 180 -77 62 -4 84 -1 122 16 l47 21 0 60 0 60 -44 -25 c-121 -68
-256 1 -256 130 0 137 146 207 261 125 15 -10 30 -19 33 -19 3 0 6 27 6 59 l0
59 -43 21 c-51 25 -150 28 -209 7z"/>
        <path d="M161 358 c-41 -90 -94 -205 -117 -255 l-43 -93 69 0 68 0 18 45 17
45 94 0 94 0 19 -45 19 -45 66 0 c36 0 65 3 65 8 -1 4 -52 117 -114 252 l-113
245 -34 3 -34 3 -74 -163z"/>
        <path d="M610 265 l0 -255 185 0 185 0 0 50 0 50 -130 0 -130 0 0 205 0 205
-55 0 -55 0 0 -255z"/>
        <path d="M1090 470 l0 -50 40 0 40 0 0 -155 0 -155 -40 0 -40 0 0 -55 0 -55
140 0 140 0 0 55 0 55 -40 0 -40 0 0 155 0 155 40 0 40 0 0 50 0 50 -140 0
-140 0 0 -50z"/>
        <path d="M2220 265 l0 -255 55 0 55 0 0 100 0 100 115 0 115 0 0 -100 0 -100
55 0 55 0 0 255 0 255 -55 0 -55 0 0 -105 0 -105 -115 0 -115 0 0 105 0 105
-55 0 -55 0 0 -255z"/>
        <path d="M2901 358 c-41 -90 -94 -205 -117 -255 l-43 -93 69 0 68 0 18 45 17
45 94 0 94 0 19 -45 19 -45 66 0 c36 0 65 3 65 8 -1 4 -52 117 -114 252 l-113
245 -34 3 -34 3 -74 -163z"/>
        <path d="M3350 265 l0 -255 55 0 55 0 0 100 0 100 115 0 115 0 0 -100 0 -100
55 0 55 0 0 255 0 255 -55 0 -55 0 0 -105 0 -105 -115 0 -115 0 0 105 0 105
-55 0 -55 0 0 -255z"/>
        <path d="M3940 470 l0 -50 40 0 40 0 0 -155 0 -155 -40 0 -40 0 0 -55 0 -55
140 0 140 0 0 55 0 55 -40 0 -40 0 0 155 0 155 40 0 40 0 0 50 0 50 -140 0
-140 0 0 -50z"/>
        <path d="M4360 265 l0 -255 55 0 55 0 0 148 1 147 143 -147 c113 -117 149
-148 170 -148 l26 0 0 255 0 255 -55 0 -54 0 -3 -150 -3 -150 -140 150 c-114
122 -145 150 -167 150 l-28 0 0 -255z"/>
        <path d="M4950 265 l0 -255 185 0 185 0 0 50 0 50 -130 0 -130 0 0 55 0 55
115 0 115 0 0 45 0 45 -115 0 -115 0 0 55 0 55 131 0 130 0 -3 48 -3 47 -182
3 -183 2 0 -255z"/>
    </g>
</svg>
