<?xml version="1.0" standalone="no"?>
<!DOCTYPE svg PUBLIC "-//W3C//DTD SVG 20010904//EN"
        "http://www.w3.org/TR/2001/REC-SVG-20010904/DTD/svg10.dtd">
<svg version="1.0" xmlns="http://www.w3.org/2000/svg"
     width="122.000000pt" height="122.000000pt" viewBox="0 0 122.000000 122.000000"
     preserveAspectRatio="xMidYMid meet">
    <metadata>
        Created by potrace 1.11, written by Peter Selinger 2001-2013
    </metadata>
    <g transform="translate(0.000000,122.000000) scale(0.100000,-0.100000)"
       fill="#000000" stroke="none">
        <path d="M574 1201 c7 -10 4 -12 -12 -7 -25 8 -74 -3 -66 -15 3 -5 -5 -9 -18
-10 -15 0 -18 -3 -8 -6 8 -3 18 -11 22 -17 5 -7 8 -7 8 2 0 7 5 10 10 7 6 -3
10 -10 10 -15 0 -9 -15 -7 -42 4 -9 4 -23 4 -29 0 -9 -5 -7 -10 7 -15 16 -6
16 -8 2 -8 -11 -1 -16 -9 -15 -22 1 -16 6 -19 27 -15 l25 5 -24 -11 c-20 -11
-26 -9 -41 10 -14 17 -20 19 -29 8 -6 -7 -8 -16 -4 -19 3 -4 1 -7 -5 -7 -6 0
-14 -17 -18 -37 -4 -21 -12 -41 -18 -45 -6 -4 -7 -10 -3 -14 3 -4 15 -1 24 7
16 13 17 12 4 -3 -11 -15 -11 -18 0 -18 10 -1 8 -4 -4 -11 -9 -5 -23 -7 -30
-3 -6 4 -9 4 -5 -1 4 -4 2 -15 -5 -23 -8 -10 -8 -13 -1 -9 7 4 14 1 17 -7 4
-10 0 -12 -14 -9 -12 4 -19 0 -19 -9 0 -23 12 -29 29 -15 14 10 14 10 3 -5 -8
-10 -20 -14 -30 -11 -14 6 -15 4 -4 -9 12 -15 41 -16 75 -3 10 5 17 3 17 -5 0
-9 4 -9 17 1 12 11 17 11 20 2 3 -9 10 -9 28 -1 25 11 25 28 -1 28 -8 0 -13
-4 -10 -9 3 -4 -8 -8 -23 -7 -16 1 -26 5 -23 10 3 5 -1 7 -9 4 -10 -4 -15 3
-15 23 -1 16 2 29 7 29 4 0 6 -9 4 -21 -3 -15 0 -19 11 -15 9 3 12 1 9 -4 -8
-13 25 -13 45 0 12 8 11 10 -7 10 -25 0 -30 14 -11 26 7 4 8 3 4 -4 -4 -7 -2
-12 3 -12 15 0 14 17 -1 26 -6 4 -16 1 -22 -7 -9 -13 -13 -12 -28 3 -17 17
-11 24 16 19 16 -3 46 10 41 18 -2 5 5 17 17 27 12 11 18 13 13 5 -6 -11 -4
-13 8 -8 13 5 15 2 7 -17 -11 -30 4 -56 22 -38 7 7 8 12 2 12 -6 0 -11 7 -11
15 0 8 4 15 9 15 5 0 6 5 3 10 -4 6 11 10 37 9 24 0 37 -3 30 -6 -6 -2 -10 -9
-6 -14 3 -5 1 -9 -5 -9 -6 0 -8 -7 -5 -15 6 -15 0 -19 -48 -29 -31 -7 -35 -20
-14 -41 15 -15 26 -10 26 11 0 8 -7 11 -17 8 -17 -5 -17 -5 -1 6 14 8 21 8 31
-1 11 -11 10 -16 -5 -31 -10 -10 -22 -18 -26 -18 -11 0 -34 43 -30 56 2 5 -1
10 -7 12 -13 3 -14 -18 -1 -43 6 -11 9 -25 8 -30 -2 -11 37 -13 54 -3 5 3 21
5 37 3 15 -2 27 1 27 7 0 6 -9 8 -20 5 -11 -3 -23 -1 -26 4 -3 5 -2 9 3 8 25
-4 43 3 43 19 0 14 -2 15 -10 2 -5 -8 -11 -12 -14 -9 -3 2 -1 11 4 19 7 11 11
12 24 0 9 -7 19 -10 23 -6 3 3 1 6 -6 6 -7 0 -10 4 -7 9 4 5 3 11 -1 14 -5 2
-1 2 7 -1 8 -3 24 -4 35 -4 16 1 17 -1 5 -8 -8 -5 -10 -10 -5 -10 6 -1 -3 -8
-18 -16 -35 -19 -31 -36 11 -45 17 -3 29 -2 26 2 -3 5 0 9 5 9 6 0 11 -4 11
-9 0 -9 43 -7 60 4 5 3 7 12 4 18 -4 7 -3 8 2 4 5 -5 10 -13 10 -18 3 -22 5
-23 14 -9 7 11 12 12 18 3 10 -16 60 -5 58 14 -1 8 -9 19 -17 24 -9 5 -10 9
-2 9 6 0 15 -5 18 -10 9 -15 24 -2 22 19 -1 16 -5 18 -20 9 -16 -8 -17 -7 -8
10 10 19 5 62 -8 62 -4 0 -8 10 -8 22 -1 13 -7 24 -13 26 -5 2 -7 9 -4 14 4 7
2 8 -4 4 -12 -7 -5 -37 12 -48 7 -5 6 -8 -4 -8 -11 -1 -10 -4 4 -15 11 -8 14
-15 7 -15 -7 0 -9 -5 -6 -10 4 -6 12 -7 18 -3 7 3 5 -2 -4 -13 -9 -10 -19 -26
-22 -34 -4 -10 -6 -7 -6 8 -1 12 4 22 10 22 8 0 7 6 -2 17 -8 9 -13 19 -11 22
2 3 -1 7 -7 9 -6 2 -11 0 -11 -5 0 -4 -14 -8 -30 -9 -19 -1 -30 4 -30 12 0 9
-12 14 -32 15 -25 1 -28 3 -13 7 20 7 33 32 16 32 -5 0 -11 8 -14 19 -3 15 0
17 17 13 15 -3 18 -2 11 6 -6 7 -28 14 -49 16 -21 3 -42 8 -45 12 -8 8 67 -2
98 -14 l24 -9 -21 -15 c-12 -8 -19 -18 -14 -22 4 -4 7 -12 7 -17 0 -5 5 -8 10
-7 6 2 9 6 8 10 -2 5 2 8 8 8 6 0 8 -13 5 -30 -4 -26 -2 -29 14 -20 9 5 19 7
22 5 3 -3 5 11 6 30 1 19 -3 35 -8 35 -5 0 -7 7 -3 16 3 9 12 13 22 9 13 -5
13 -4 4 6 -10 10 -17 9 -33 -9 -19 -20 -19 -22 -2 -32 16 -11 16 -11 -1 -6
-10 3 -23 6 -29 6 -6 0 -4 8 5 18 10 10 17 21 17 24 0 6 -68 23 -87 21 -7 0
-13 4 -13 9 0 9 22 7 73 -8 9 -3 17 -1 17 5 0 6 -7 11 -15 11 -9 0 -19 8 -23
18 -4 9 -13 18 -21 20 -12 3 -12 1 -1 -13 12 -15 11 -17 -10 -13 -13 1 -25 9
-28 17 -3 8 0 11 7 7 6 -4 11 -2 11 3 0 6 -6 11 -12 12 -7 0 -4 4 7 8 17 7 16
8 -9 15 -15 4 -36 4 -47 1 -11 -4 -19 -2 -19 4 0 6 -5 11 -11 11 -5 0 -7 -6
-3 -12 5 -8 0 -7 -11 2 -14 11 -17 11 -11 1z m-29 -21 c-3 -5 -14 -10 -23 -9
-14 0 -13 2 3 9 27 11 27 11 20 0z m112 4 c-3 -3 -12 -4 -19 -1 -8 3 -5 6 6 6
11 1 17 -2 13 -5z m-22 -14 c11 -5 16 -9 10 -9 -5 -1 -3 -6 5 -11 13 -8 12
-10 -2 -10 -10 0 -18 5 -18 11 0 5 -5 7 -12 3 -6 -4 -8 -3 -4 4 3 6 -2 13 -11
15 -12 3 -13 5 -3 5 8 0 24 -3 35 -8z m-72 -17 c-7 -2 -19 -2 -25 0 -7 3 -2 5
12 5 14 0 19 -2 13 -5z m32 -14 c-4 -5 6 -9 22 -9 15 0 35 -5 43 -11 13 -9 12
-10 -3 -5 -10 3 -20 0 -23 -9 -3 -8 -12 -11 -22 -8 -13 6 -13 8 4 14 17 7 16
8 -6 9 -14 2 -32 2 -40 1 -11 -1 -10 1 3 9 9 6 14 16 11 22 -4 7 -2 8 5 4 6
-4 9 -12 6 -17z m-78 -34 c0 -8 -4 -15 -9 -15 -4 0 -8 4 -8 10 0 5 -8 7 -17 4
-15 -5 -16 -4 -3 5 21 15 37 14 37 -4z m58 -5 c-17 -7 -17 -9 -2 -9 9 -1 17
-5 17 -10 0 -6 -9 -9 -19 -8 -11 0 -19 6 -18 12 1 5 -4 9 -11 7 -8 -1 -11 1
-9 6 3 4 18 8 34 9 24 1 25 0 8 -7z m-152 -24 c7 -17 -1 -26 -22 -26 -13 0
-13 2 -2 9 7 5 10 14 7 20 -4 6 -3 11 2 11 6 0 12 -6 15 -14z m117 -5 c0 -5 8
-12 18 -14 14 -4 14 -5 -3 -6 -11 -1 -27 -6 -35 -11 -10 -7 1 -9 37 -4 56 7
107 -1 98 -15 -2 -5 2 -11 10 -15 9 -3 12 -12 9 -21 -4 -9 -13 -14 -20 -11 -8
3 -14 1 -14 -4 0 -6 -8 -10 -17 -9 -11 0 -13 3 -5 6 6 2 9 10 5 15 -4 7 2 9
15 6 12 -4 25 -2 28 3 7 11 7 11 -98 13 -49 1 -88 -1 -88 -5 0 -4 -9 -9 -21
-12 -12 -3 -18 -10 -15 -16 4 -5 1 -13 -5 -17 -8 -5 -9 -3 -4 6 6 10 4 12 -9
7 -9 -4 -15 -3 -11 2 3 5 -1 12 -7 15 -7 3 -3 3 9 0 19 -4 22 -2 17 13 -5 15
-4 16 5 3 6 -8 11 -10 11 -4 0 7 11 15 24 18 18 4 23 11 19 25 -3 12 -11 18
-21 15 -10 -2 -3 2 13 10 35 18 55 20 55 7z m77 2 c-9 -2 -15 -9 -12 -14 4 -5
-1 -9 -11 -9 -13 0 -14 3 -4 15 7 8 20 14 29 14 13 -1 13 -2 -2 -6z m82 -29
c9 -8 -45 -2 -64 6 -14 7 -8 8 20 3 22 -3 42 -7 44 -9z m7 -26 c3 -4 -1 -5
-10 -4 -8 1 -18 5 -22 8 -3 4 1 5 10 4 8 -1 18 -5 22 -8z m-291 -8 c-3 -5 -14
-10 -23 -9 -14 0 -13 2 3 9 27 11 27 11 20 0z m366 -13 c-10 -9 -11 -8 -5 6 3
10 9 15 12 12 3 -3 0 -11 -7 -18z m-59 -30 c-16 -7 -26 -7 -34 1 -8 8 -2 10
23 10 31 -1 32 -2 11 -11z m-37 -17 c4 -6 10 -8 14 -6 4 3 13 0 21 -5 12 -7
10 -8 -7 -6 -12 2 -26 6 -29 10 -12 12 -26 8 -18 -5 4 -7 3 -8 -4 -4 -7 4 -12
11 -12 17 0 12 27 12 35 -1z m130 -31 c-6 -30 -13 -35 -28 -20 -9 10 -9 12 2
9 7 -2 15 5 16 15 3 14 -1 16 -16 12 -18 -6 -26 5 -13 18 13 13 43 -13 39 -34z
m-62 16 c-3 -9 -8 -14 -10 -11 -3 3 -2 9 2 15 9 16 15 13 8 -4z m13 -41 c18
-15 18 -15 -2 -5 -14 7 -24 7 -31 0 -6 -6 -10 -4 -10 6 0 19 18 19 43 -1z
m-56 -1 c-1 -16 -28 -43 -41 -42 -12 0 -12 1 0 6 11 5 11 7 0 14 -11 7 -10 9
4 9 9 0 17 5 17 10 0 6 5 10 10 10 6 0 10 -3 10 -7z m35 -23 c-3 -5 -14 -10
-23 -9 -14 0 -13 2 3 9 27 11 27 11 20 0z m104 -3 c8 -10 7 -14 -4 -14 -8 0
-12 4 -9 8 2 4 -2 10 -8 12 -8 4 -9 6 -2 6 6 1 17 -5 23 -12z"/>
        <path d="M505 1060 c-3 -5 1 -10 9 -10 9 0 16 5 16 10 0 6 -4 10 -9 10 -6 0
-13 -4 -16 -10z"/>
        <path d="M550 1026 c0 -2 7 -6 15 -10 8 -3 15 -1 15 4 0 6 -7 10 -15 10 -8 0
-15 -2 -15 -4z"/>
        <path d="M590 1026 c0 -9 40 -13 46 -5 3 5 -6 9 -20 9 -14 0 -26 -2 -26 -4z"/>
        <path d="M518 1013 c7 -3 16 -2 19 1 4 3 -2 6 -13 5 -11 0 -14 -3 -6 -6z"/>
        <path d="M546 971 c-9 -14 4 -41 20 -41 8 0 11 6 8 15 -4 8 -11 15 -18 15 -6
0 -4 5 4 10 9 6 10 10 3 10 -6 0 -14 -4 -17 -9z"/>
        <path d="M478 963 c7 -3 16 -2 19 1 4 3 -2 6 -13 5 -11 0 -14 -3 -6 -6z"/>
        <path d="M465 940 c-3 -5 1 -10 10 -10 9 0 13 5 10 10 -3 6 -8 10 -10 10 -2 0
-7 -4 -10 -10z"/>
        <path d="M887 864 c-4 -4 -2 -13 4 -21 6 -7 10 -13 8 -14 -2 0 -15 -2 -29 -4
-217 -31 -363 -86 -436 -167 -56 -62 -43 -109 38 -133 53 -15 163 -19 208 -6
18 5 5 9 -49 14 -44 3 -78 11 -82 19 -5 7 -9 9 -9 4 0 -5 -11 1 -24 13 -22 20
-23 27 -14 54 14 40 51 74 120 109 50 26 129 56 168 63 10 2 34 8 53 13 20 6
38 8 41 5 2 -3 12 7 22 21 9 15 14 29 10 33 -3 3 -6 0 -6 -8 0 -11 -2 -11 -8
-1 -5 7 -11 9 -15 6z"/>
        <path d="M272 769 c-6 -13 -30 -70 -56 -127 -51 -112 -50 -112 -36 -112 9 0
27 33 34 65 9 36 19 42 59 41 39 -1 43 -4 64 -46 12 -25 24 -49 26 -54 2 -5
11 -6 21 -3 13 5 15 11 8 20 -6 7 -20 39 -32 72 -13 33 -26 64 -31 70 -5 5 -9
15 -9 22 0 7 -9 27 -20 45 l-19 32 -9 -25z m23 -75 c19 -46 20 -44 -14 -44
-33 0 -49 16 -32 33 6 6 11 19 11 29 0 30 19 20 35 -18z"/>
        <path d="M921 738 c-83 -187 -90 -208 -72 -208 4 0 16 21 26 48 22 56 27 61
71 56 42 -4 54 -11 54 -30 0 -25 30 -74 45 -74 8 0 15 3 15 7 0 14 -104 253
-110 253 -4 0 -17 -24 -29 -52z m39 -38 c0 -10 5 -22 10 -25 18 -11 0 -25 -31
-25 -34 0 -34 0 -14 46 15 36 35 38 35 4z"/>
        <path d="M749 766 c-174 -48 -283 -158 -199 -201 32 -16 146 -21 169 -6 9 6
-1 9 -28 9 -151 2 -118 111 53 176 100 38 102 48 5 22z"/>
        <path d="M172 451 c-15 -43 -15 -46 3 -31 8 6 19 9 26 5 8 -5 8 -2 1 11 -5 11
-11 26 -14 34 -3 9 -9 1 -16 -19z"/>
        <path d="M343 445 c0 -22 2 -30 4 -17 2 12 2 30 0 40 -3 9 -5 -1 -4 -23z"/>
        <path d="M488 469 c-15 -8 -26 -49 -14 -49 2 0 13 -3 23 -6 17 -5 17 -5 1 6
-10 6 -18 16 -18 22 0 6 8 17 18 24 20 16 14 18 -10 3z"/>
        <path d="M250 454 c0 -10 5 -26 10 -34 8 -11 9 -7 4 15 -8 37 -14 45 -14 19z"/>
        <path d="M560 453 c0 -13 5 -23 10 -23 13 0 13 11 0 30 -8 12 -10 11 -10 -7z"/>
        <path d="M594 459 c-3 -6 -1 -16 5 -22 8 -8 11 -5 11 11 0 24 -5 28 -16 11z"/>
        <path d="M674 454 c3 -8 2 -12 -4 -9 -6 3 -10 0 -10 -7 0 -7 11 -14 25 -14 14
-1 25 2 25 8 0 5 -5 6 -11 2 -8 -4 -9 0 -4 15 5 16 2 21 -10 21 -11 0 -15 -5
-11 -16z"/>
        <path d="M758 459 c-3 -9 -2 -22 3 -30 7 -11 9 -11 9 -1 0 9 7 11 20 7 11 -4
20 -2 20 4 0 6 -9 11 -19 11 -11 0 -21 5 -23 12 -3 8 -6 7 -10 -3z"/>
        <path d="M858 440 c2 -16 6 -30 8 -30 2 0 4 14 4 30 0 17 -4 30 -8 30 -5 0 -7
-13 -4 -30z"/>
        <path d="M920 463 c0 -5 12 -19 25 -32 l25 -23 -2 25 c-1 16 -7 23 -15 20 -7
-3 -13 0 -13 6 0 6 -4 11 -10 11 -5 0 -10 -3 -10 -7z"/>
        <path d="M1020 455 c0 -8 7 -15 16 -15 14 0 14 3 4 15 -7 8 -14 15 -16 15 -2
0 -4 -7 -4 -15z"/>
        <path d="M1020 420 c0 -5 5 -10 10 -10 6 0 10 5 10 10 0 6 -4 10 -10 10 -5 0
-10 -4 -10 -10z"/>
        <path d="M172 355 c-14 -31 -16 -57 -3 -36 5 8 16 11 26 8 13 -6 15 -3 10 16
-11 36 -21 39 -33 12z"/>
        <path d="M265 370 c-8 -13 3 -30 18 -29 8 0 8 2 -1 6 -10 4 -10 8 -1 19 8 9 8
14 1 14 -6 0 -14 -4 -17 -10z"/>
        <path d="M362 373 c-10 -4 -10 -8 -1 -19 6 -8 17 -14 23 -14 6 0 4 5 -4 10
-13 9 -13 11 0 20 16 10 4 12 -18 3z"/>
        <path d="M456 367 c-16 -12 -17 -17 -7 -33 9 -14 11 -15 7 -2 -6 20 18 43 35
32 8 -4 9 -3 5 4 -9 15 -18 15 -40 -1z"/>
        <path d="M570 370 c-9 -6 -10 -10 -3 -10 6 0 15 5 18 10 8 12 4 12 -15 0z"/>
        <path d="M658 345 c-2 -19 -1 -35 3 -35 9 0 17 60 8 65 -4 3 -9 -11 -11 -30z"/>
        <path d="M839 367 c7 -7 14 -8 21 -1 6 6 2 10 -12 11 -16 2 -18 -1 -9 -10z"/>
        <path d="M930 345 c0 -30 3 -35 23 -34 16 1 18 2 5 6 -20 5 -25 23 -7 23 8 0
9 4 0 13 -6 8 -8 17 -4 20 3 4 1 7 -5 7 -7 0 -12 -15 -12 -35z"/>
        <path d="M743 353 c-3 -10 -8 -22 -10 -26 -3 -4 7 -5 21 -1 18 4 26 2 26 -7 0
-7 2 -10 5 -7 9 8 -13 58 -25 58 -6 0 -13 -8 -17 -17z"/>
        <path d="M1022 359 c5 -16 48 -44 48 -31 0 5 -12 17 -26 27 -17 11 -25 13 -22
4z"/>
        <path d="M487 330 c-9 -11 -13 -20 -8 -20 11 0 35 29 29 35 -2 2 -12 -4 -21
-15z"/>
        <path d="M550 341 c0 -5 8 -15 18 -22 15 -12 16 -12 5 2 -7 9 -10 19 -6 22 3
4 1 7 -5 7 -7 0 -12 -4 -12 -9z"/>
        <path d="M846 335 c4 -8 8 -15 10 -15 2 0 4 7 4 15 0 8 -4 15 -10 15 -5 0 -7
-7 -4 -15z"/>
        <path d="M290 319 c0 -5 5 -7 10 -4 6 3 10 8 10 11 0 2 -4 4 -10 4 -5 0 -10
-5 -10 -11z"/>
        <path d="M370 320 c-13 -8 -13 -10 2 -10 9 0 20 5 23 10 8 13 -5 13 -25 0z"/>
        <path d="M1028 313 c7 -3 16 -2 19 1 4 3 -2 6 -13 5 -11 0 -14 -3 -6 -6z"/>
        <path d="M303 283 c9 -2 14 -9 11 -15 -5 -7 -2 -8 6 -3 10 6 12 4 7 -8 -3 -9
-1 -18 6 -21 8 -3 7 -5 -2 -5 -10 -1 -7 -9 10 -28 13 -14 18 -23 10 -18 -9 5
-12 4 -7 -3 4 -7 14 -12 23 -12 9 0 13 -3 10 -7 -4 -3 1 -12 11 -20 10 -9 11
-12 2 -7 -24 11 -3 -8 22 -21 13 -6 22 -16 21 -22 -2 -12 89 -25 97 -15 3 4
14 9 25 10 11 2 27 9 35 15 8 6 5 0 -8 -14 -12 -14 -19 -29 -15 -32 3 -4 -1
-7 -11 -7 -9 0 -14 4 -11 10 3 6 -1 7 -9 4 -26 -10 -18 -21 12 -19 49 3 53 5
47 15 -3 5 0 10 8 10 9 0 17 13 19 30 3 20 0 30 -8 30 -8 0 -11 6 -7 16 3 9 0
20 -8 25 -12 7 -12 9 1 10 10 0 9 3 -5 10 l-20 9 20 -3 c11 -1 19 -7 18 -12
-1 -6 5 -14 13 -18 8 -5 12 -12 9 -17 -3 -5 -1 -11 4 -14 5 -4 8 -22 6 -42 -3
-37 0 -40 47 -48 18 -3 25 -1 22 8 -6 15 45 20 62 5 10 -9 14 -9 14 0 0 6 -5
11 -11 11 -8 0 -9 4 0 13 6 8 8 16 5 19 -2 3 2 8 11 12 9 3 14 2 10 -3 -3 -5
0 -20 5 -33 10 -21 10 -21 6 -1 -2 14 0 20 9 17 7 -3 15 2 19 11 4 11 2 14 -7
10 -6 -4 -3 1 7 9 25 20 30 46 8 40 -10 -3 -7 1 6 7 12 7 22 16 22 21 0 5 5 6
10 3 6 -3 10 3 10 14 0 11 6 26 13 33 6 7 19 22 27 33 15 20 15 20 -8 0 -17
-14 -23 -16 -20 -5 2 12 -8 15 -52 14 -30 -1 -72 -4 -93 -8 -26 -5 -44 -3 -55
5 -9 8 -14 9 -10 5 4 -5 3 -16 -4 -23 -9 -11 -9 -16 1 -22 10 -6 9 -10 -4 -15
-9 -3 -13 -10 -10 -16 3 -5 2 -10 -3 -10 -5 0 -12 -9 -15 -21 -5 -18 -8 -19
-20 -8 -12 11 -12 15 -2 17 7 2 11 11 8 23 -3 11 -2 19 3 18 20 -3 35 2 29 11
-3 5 -13 6 -22 3 -15 -6 -16 -5 -3 9 8 9 20 13 25 10 6 -2 4 1 -3 9 -16 18
-326 24 -315 6 5 -9 3 -9 -8 -1 -8 6 -27 11 -44 11 -16 0 -22 -1 -12 -4z m342
-23 c-3 -5 -12 -10 -18 -10 -7 0 -6 4 3 10 19 12 23 12 15 0z m230 0 c-3 -5
-12 -10 -18 -10 -7 0 -6 4 3 10 19 12 23 12 15 0z m-100 -19 c-4 -3 -11 -6
-16 -6 -5 0 -9 -4 -8 -9 1 -9 -20 -26 -33 -26 -5 0 -8 5 -8 12 0 6 3 8 6 5 4
-3 15 5 26 18 11 14 24 22 29 19 6 -3 7 -9 4 -13z m48 -9 c-2 -7 3 -12 10 -12
6 0 4 -5 -6 -11 -13 -8 -15 -14 -7 -30 7 -12 7 -19 1 -19 -5 0 -12 8 -16 19
-3 10 -15 23 -28 30 -18 9 -18 10 -2 6 35 -11 39 -10 40 5 0 8 -6 18 -15 22
-11 6 -10 7 5 5 11 -2 19 -9 18 -15z m-203 -12 c0 -5 -4 -10 -9 -10 -6 0 -13
5 -16 10 -3 6 1 10 9 10 9 0 16 -4 16 -10z m265 0 c3 -5 1 -10 -4 -10 -6 0
-11 5 -11 10 0 6 2 10 4 10 3 0 8 -4 11 -10z m-22 -27 c-7 -2 -19 -2 -25 0 -7
3 -2 5 12 5 14 0 19 -2 13 -5z m-127 -19 c-8 -8 -21 -14 -28 -13 -10 0 -10 2
0 6 6 2 10 8 8 12 -3 4 4 8 15 8 17 2 17 0 5 -13z m54 8 c0 -5 -7 -9 -15 -9
-8 0 -15 4 -15 9 0 4 7 8 15 8 8 0 15 -4 15 -8z m-220 -17 c-7 -8 -17 -15 -23
-15 -6 0 -2 7 9 15 25 19 30 19 14 0z m17 -20 c0 -8 -4 -15 -9 -15 -10 0 -11
14 -1 23 9 10 10 9 10 -8z m203 4 c0 -5 5 -7 10 -4 6 3 10 1 10 -4 0 -6 -5
-11 -11 -11 -6 0 -17 -7 -26 -15 -8 -9 -18 -13 -22 -10 -3 4 3 13 13 21 21 15
16 31 -6 18 -7 -5 -19 -9 -26 -10 -19 -3 -25 -11 -17 -23 3 -6 11 -8 17 -5 7
5 8 2 3 -6 -6 -10 -1 -12 18 -8 15 3 24 2 22 -2 -3 -4 -16 -10 -31 -13 -20 -4
-27 0 -35 21 -8 21 -12 23 -19 12 -12 -18 -13 -33 -2 -26 4 2 8 -4 9 -14 1
-16 -1 -17 -16 -9 -9 6 -18 20 -18 30 -1 11 2 17 8 14 5 -4 9 -2 9 4 0 5 -6
12 -12 14 -7 3 1 6 17 6 23 1 27 4 15 11 -11 7 -6 8 18 5 17 -2 32 1 32 6 0 5
9 9 20 9 11 0 20 -5 20 -11z m-339 -26 c29 -17 38 -33 19 -33 -5 0 -10 4 -10
10 0 5 -12 16 -27 24 -16 8 -24 15 -20 16 5 0 22 -8 38 -17z"/>
    </g>
</svg>
